<mxfile host="app.diagrams.net" agent="Mozilla/5.0 (Windows NT 10.0; Win64; x64; rv:128.0) Gecko/20100101 Firefox/128.0" version="26.0.11">
  <diagram name="Page-1" id="WErCgWbNOn2o73B138BZ">
    <mxGraphModel dx="1975" dy="981" grid="1" gridSize="10" guides="1" tooltips="1" connect="1" arrows="1" fold="1" page="1" pageScale="1" pageWidth="827" pageHeight="1169" math="0" shadow="0">
      <root>
        <mxCell id="0" />
        <mxCell id="1" parent="0" />
        <mxCell id="BePfxDTcmuDDdTPrliQB-4" value="Kind: we are considerate and thoughtful so everyone feels valued, respected and&lt;br&gt;included" style="rounded=0;whiteSpace=wrap;html=1;" parent="1" vertex="1">
          <mxGeometry x="80" y="80" width="280" height="70" as="geometry" />
        </mxCell>
        <mxCell id="BePfxDTcmuDDdTPrliQB-5" value="&lt;b&gt;VALUES - MUST INCLUDE!&lt;/b&gt;" style="text;html=1;align=center;verticalAlign=middle;whiteSpace=wrap;rounded=0;" parent="1" vertex="1">
          <mxGeometry x="130" y="40" width="180" height="30" as="geometry" />
        </mxCell>
        <mxCell id="BePfxDTcmuDDdTPrliQB-6" value="Collaborative: We actively seek othersâ€™ views and ideas so we can achieve more&lt;br&gt;together" style="rounded=0;whiteSpace=wrap;html=1;" parent="1" vertex="1">
          <mxGeometry x="80" y="170" width="280" height="70" as="geometry" />
        </mxCell>
        <mxCell id="BePfxDTcmuDDdTPrliQB-7" value="Expert: We draw on diverse skills, knowledge and experience so we provide the best&lt;br&gt;possible care" style="rounded=0;whiteSpace=wrap;html=1;" parent="1" vertex="1">
          <mxGeometry x="80" y="260" width="280" height="70" as="geometry" />
        </mxCell>
        <mxCell id="BePfxDTcmuDDdTPrliQB-8" value="Aspirational: We are receptive and responsive to new thinking, so we never stop&lt;br&gt;learning, discovering and improving" style="rounded=0;whiteSpace=wrap;html=1;" parent="1" vertex="1">
          <mxGeometry x="80" y="350" width="280" height="70" as="geometry" />
        </mxCell>
        <mxCell id="BePfxDTcmuDDdTPrliQB-11" value="Personal Statement Checklist" style="swimlane;fontStyle=0;childLayout=stackLayout;horizontal=1;startSize=30;horizontalStack=0;resizeParent=1;resizeParentMax=0;resizeLast=0;collapsible=1;marginBottom=0;whiteSpace=wrap;html=1;" parent="1" vertex="1">
          <mxGeometry x="80" y="450" width="406" height="390" as="geometry">
            <mxRectangle x="414" y="440" width="200" height="30" as="alternateBounds" />
          </mxGeometry>
        </mxCell>
        <mxCell id="BePfxDTcmuDDdTPrliQB-12" value="Customer orientated environment" style="text;strokeColor=none;fillColor=none;align=left;verticalAlign=middle;spacingLeft=4;spacingRight=4;overflow=hidden;points=[[0,0.5],[1,0.5]];portConstraint=eastwest;rotatable=0;whiteSpace=wrap;html=1;" parent="BePfxDTcmuDDdTPrliQB-11" vertex="1">
          <mxGeometry y="30" width="406" height="30" as="geometry" />
        </mxCell>
        <mxCell id="BePfxDTcmuDDdTPrliQB-13" value="Good interpersonal skills" style="text;strokeColor=default;fillColor=none;align=left;verticalAlign=middle;spacingLeft=4;spacingRight=4;overflow=hidden;points=[[0,0.5],[1,0.5]];portConstraint=eastwest;rotatable=0;whiteSpace=wrap;html=1;" parent="BePfxDTcmuDDdTPrliQB-11" vertex="1">
          <mxGeometry y="60" width="406" height="30" as="geometry" />
        </mxCell>
        <mxCell id="BePfxDTcmuDDdTPrliQB-14" value="Good ability to organise and prioritise work" style="text;strokeColor=none;fillColor=none;align=left;verticalAlign=middle;spacingLeft=4;spacingRight=4;overflow=hidden;points=[[0,0.5],[1,0.5]];portConstraint=eastwest;rotatable=0;whiteSpace=wrap;html=1;" parent="BePfxDTcmuDDdTPrliQB-11" vertex="1">
          <mxGeometry y="90" width="406" height="30" as="geometry" />
        </mxCell>
        <mxCell id="BePfxDTcmuDDdTPrliQB-16" value="Able to use own initiative" style="text;strokeColor=default;fillColor=none;align=left;verticalAlign=middle;spacingLeft=4;spacingRight=4;overflow=hidden;points=[[0,0.5],[1,0.5]];portConstraint=eastwest;rotatable=0;whiteSpace=wrap;html=1;" parent="BePfxDTcmuDDdTPrliQB-11" vertex="1">
          <mxGeometry y="120" width="406" height="30" as="geometry" />
        </mxCell>
        <mxCell id="BePfxDTcmuDDdTPrliQB-17" value="Analytical ability for problem solving" style="text;strokeColor=none;fillColor=none;align=left;verticalAlign=middle;spacingLeft=4;spacingRight=4;overflow=hidden;points=[[0,0.5],[1,0.5]];portConstraint=eastwest;rotatable=0;whiteSpace=wrap;html=1;" parent="BePfxDTcmuDDdTPrliQB-11" vertex="1">
          <mxGeometry y="150" width="406" height="30" as="geometry" />
        </mxCell>
        <mxCell id="BePfxDTcmuDDdTPrliQB-18" value="Able to work on own as well as part of a team" style="text;strokeColor=default;fillColor=none;align=left;verticalAlign=middle;spacingLeft=4;spacingRight=4;overflow=hidden;points=[[0,0.5],[1,0.5]];portConstraint=eastwest;rotatable=0;whiteSpace=wrap;html=1;" parent="BePfxDTcmuDDdTPrliQB-11" vertex="1">
          <mxGeometry y="180" width="406" height="30" as="geometry" />
        </mxCell>
        <mxCell id="BePfxDTcmuDDdTPrliQB-19" value="Good personal organisation and time management skills" style="text;strokeColor=none;fillColor=none;align=left;verticalAlign=middle;spacingLeft=4;spacingRight=4;overflow=hidden;points=[[0,0.5],[1,0.5]];portConstraint=eastwest;rotatable=0;whiteSpace=wrap;html=1;" parent="BePfxDTcmuDDdTPrliQB-11" vertex="1">
          <mxGeometry y="210" width="406" height="30" as="geometry" />
        </mxCell>
        <mxCell id="BePfxDTcmuDDdTPrliQB-20" value="Ability to deal with non-routine activities" style="text;strokeColor=default;fillColor=none;align=left;verticalAlign=middle;spacingLeft=4;spacingRight=4;overflow=hidden;points=[[0,0.5],[1,0.5]];portConstraint=eastwest;rotatable=0;whiteSpace=wrap;html=1;" parent="BePfxDTcmuDDdTPrliQB-11" vertex="1">
          <mxGeometry y="240" width="406" height="30" as="geometry" />
        </mxCell>
        <mxCell id="BePfxDTcmuDDdTPrliQB-21" value="Good attention to detail" style="text;strokeColor=none;fillColor=none;align=left;verticalAlign=middle;spacingLeft=4;spacingRight=4;overflow=hidden;points=[[0,0.5],[1,0.5]];portConstraint=eastwest;rotatable=0;whiteSpace=wrap;html=1;" parent="BePfxDTcmuDDdTPrliQB-11" vertex="1">
          <mxGeometry y="270" width="406" height="30" as="geometry" />
        </mxCell>
        <mxCell id="BePfxDTcmuDDdTPrliQB-22" value="Demonstrates awareness of and commitment to quality customer care" style="text;strokeColor=default;fillColor=none;align=left;verticalAlign=middle;spacingLeft=4;spacingRight=4;overflow=hidden;points=[[0,0.5],[1,0.5]];portConstraint=eastwest;rotatable=0;whiteSpace=wrap;html=1;" parent="BePfxDTcmuDDdTPrliQB-11" vertex="1">
          <mxGeometry y="300" width="406" height="30" as="geometry" />
        </mxCell>
        <mxCell id="BePfxDTcmuDDdTPrliQB-23" value="Good verbal and written communication skills" style="text;strokeColor=none;fillColor=none;align=left;verticalAlign=middle;spacingLeft=4;spacingRight=4;overflow=hidden;points=[[0,0.5],[1,0.5]];portConstraint=eastwest;rotatable=0;whiteSpace=wrap;html=1;" parent="BePfxDTcmuDDdTPrliQB-11" vertex="1">
          <mxGeometry y="330" width="406" height="30" as="geometry" />
        </mxCell>
        <mxCell id="BePfxDTcmuDDdTPrliQB-24" value="Demonstrate the ability to meet trust Values" style="text;strokeColor=default;fillColor=none;align=left;verticalAlign=middle;spacingLeft=4;spacingRight=4;overflow=hidden;points=[[0,0.5],[1,0.5]];portConstraint=eastwest;rotatable=0;whiteSpace=wrap;html=1;" parent="BePfxDTcmuDDdTPrliQB-11" vertex="1">
          <mxGeometry y="360" width="406" height="30" as="geometry" />
        </mxCell>
      </root>
    </mxGraphModel>
  </diagram>
</mxfile>
